<svg width="32" height="24" viewBox="0 0 32 24" fill="none" xmlns="http://www.w3.org/2000/svg">
<g clip-path="url(#clip0_1663_760)">
<path d="M32 0H0V24H32V0Z" fill="white"/>
<path d="M9.15556 0H0V24H9.15556V0Z" fill="#307AB1"/>
<path d="M32 0H22.8445V24H32V0Z" fill="#CE2633"/>
<path d="M0.000141667 0H0V0.0001H0.000141667V0Z" fill="white"/>
<path d="M15.494 7.37639V9.55324H13.1508V10.5931H15.494V15.2659H16.5339V10.5931H18.8771V9.55324H16.5339V7.37639H15.494Z" fill="black"/>
<path d="M16.0142 16.2642C15.9338 16.2642 15.8686 16.3294 15.8686 16.4098V17.1866C15.515 17.2184 15.1932 17.3599 14.9371 17.577L14.3887 17.0286C14.3319 16.9717 14.2397 16.9717 14.1829 17.0286C14.126 17.0854 14.126 17.1776 14.1829 17.2344L14.732 17.7836C14.5172 18.0412 14.3786 18.3643 14.3496 18.7184H13.5739C13.4935 18.7184 13.4283 18.7836 13.4283 18.864C13.4283 18.9444 13.4935 19.0096 13.5739 19.0096H14.3507C14.3826 19.3632 14.5241 19.6851 14.7411 19.9411L14.1927 20.4895C14.1358 20.5463 14.1358 20.6385 14.1927 20.6954C14.2495 20.7522 14.3417 20.7522 14.3986 20.6954L14.9477 20.1462C15.202 20.3582 15.52 20.4961 15.8687 20.5275V21.3042C15.8687 21.3846 15.9339 21.4498 16.0143 21.4498C16.0947 21.4498 16.1598 21.3846 16.1598 21.3042V20.5286C16.514 20.4996 16.837 20.3609 17.0947 20.1462L17.6438 20.6953C17.7007 20.7522 17.7928 20.7522 17.8497 20.6953C17.9065 20.6385 17.9065 20.5463 17.8497 20.4894L17.3013 19.941C17.5183 19.685 17.6598 19.3631 17.6917 19.0095H18.4684C18.5489 19.0095 18.614 18.9444 18.614 18.864C18.614 18.7835 18.5489 18.7184 18.4684 18.7184H17.6928C17.6638 18.3642 17.5251 18.0412 17.3104 17.7835L17.8595 17.2344C17.9164 17.1775 17.9164 17.0854 17.8595 17.0285C17.8027 16.9717 17.7105 16.9717 17.6536 17.0285L17.1052 17.5769C16.8459 17.3571 16.5189 17.2148 16.1599 17.1854V16.4098C16.1599 16.3294 16.0947 16.2642 16.0143 16.2642L16.0142 16.2642Z" fill="#F0DF0D"/>
<path d="M19.1023 7.76127C19.2824 7.38432 19.3833 6.9623 19.3833 6.51673C19.3833 4.92011 18.089 3.62579 16.4924 3.62579C16.0053 3.62579 15.5464 3.74643 15.1438 3.95918C15.6458 3.4093 16.3685 3.06426 17.1718 3.06426C18.688 3.06426 19.9171 4.29339 19.9171 5.80959C19.9171 6.57307 19.6053 7.26368 19.1023 7.76127Z" fill="#F0DF0D"/>
<path d="M4.14342 3.14056L4.63706 4.6477L6.244 4.64465L4.94214 5.57307L5.44166 7.07832L4.14342 6.14498L2.84519 7.07832L3.34471 5.57307L2.04285 4.64465L3.64978 4.6477L4.14342 3.14056Z" fill="#F0DF0D"/>
<path d="M4.14342 16.8809L4.63706 18.388L6.244 18.385L4.94214 19.3134L5.44166 20.8187L4.14342 19.8853L2.84519 20.8187L3.34471 19.3134L2.04285 18.385L3.64978 18.388L4.14342 16.8809Z" fill="#F0DF0D"/>
<path d="M27.8994 3.14056L28.393 4.6477L30 4.64465L28.6981 5.57307L29.1976 7.07832L27.8994 6.14498L26.6012 7.07832L27.1007 5.57307L25.7988 4.64465L27.4058 4.6477L27.8994 3.14056Z" fill="#F0DF0D"/>
<path d="M27.8994 16.8809L28.393 18.388L30 18.385L28.6981 19.3134L29.1976 20.8187L27.8994 19.8853L26.6012 20.8187L27.1007 19.3134L25.7988 18.385L27.4058 18.388L27.8994 16.8809Z" fill="#F0DF0D"/>
</g>
<defs>
<clipPath id="clip0_1663_760">
<rect width="32" height="24" rx="2" fill="white"/>
</clipPath>
</defs>
</svg>
